<?xml version="1.0" standalone="no"?>
<!DOCTYPE svg PUBLIC "-//W3C//DTD SVG 20010904//EN"
 "http://www.w3.org/TR/2001/REC-SVG-20010904/DTD/svg10.dtd">
<svg version="1.0" xmlns="http://www.w3.org/2000/svg"
 width="300.000000pt" height="126.000000pt" viewBox="0 0 300.000000 126.000000"
 preserveAspectRatio="xMidYMid meet">
<metadata>
Created by potrace 1.10, written by Peter Selinger 2001-2011
</metadata>
<g transform="translate(0.000000,126.000000) scale(0.100000,-0.100000)"
fill="#000000" stroke="none">
<path d="M575 1250 c-211 -15 -399 -138 -497 -326 -62 -118 -66 -144 -69 -511
-4 -368 -4 -369 66 -399 50 -21 66 -16 23 6 -46 25 -78 76 -78 127 0 35 29 87
216 389 428 690 426 688 464 706 l35 18 -30 -1 c-16 -1 -75 -5 -130 -9z m10
-77 c-16 -27 -68 -112 -117 -190 -48 -79 -128 -207 -177 -285 -221 -357 -254
-407 -262 -402 -5 3 -9 78 -9 168 0 142 3 174 26 261 65 250 206 404 434 472
41 12 88 22 103 22 l29 1 -27 -47z"/>
<path d="M815 1240 c16 -8 174 -117 350 -240 l320 -225 600 -5 600 -5 68 -32
c82 -39 154 -110 194 -190 25 -52 28 -68 28 -158 0 -93 -2 -105 -32 -166 -39
-79 -102 -140 -181 -177 l-57 -27 -555 -3 c-540 -2 -556 -2 -588 18 -63 39
-90 120 -59 180 7 13 28 35 46 47 l34 23 524 0 c575 0 567 -1 598 60 22 42 19
85 -9 117 l-24 28 -609 5 -608 5 -304 203 c-255 170 -309 203 -335 200 -29 -3
-46 -28 -296 -428 -175 -280 -276 -432 -296 -445 l-29 -20 1232 -3 c1364 -4
1291 -7 1395 60 63 40 105 89 141 166 l30 64 0 444 c0 401 -2 446 -18 470 -36
56 -9 54 -967 52 l-883 -3 887 -5 886 -5 27 -25 c56 -52 71 -125 38 -181 -36
-61 -15 -59 -771 -59 l-691 0 -203 134 -203 134 -155 4 c-146 4 -154 3 -125
-12z m438 -139 c106 -70 206 -135 224 -145 29 -14 101 -16 723 -16 666 0 692
1 729 20 21 10 41 16 45 13 3 -4 6 -94 6 -201 l0 -194 -82 84 c-84 86 -136
118 -220 138 -26 6 -272 10 -608 10 l-566 0 -74 50 c-41 28 -118 81 -171 118
-52 37 -150 105 -216 152 -67 46 -119 88 -117 92 3 5 35 8 70 8 l66 0 191
-129z m-110 -439 c155 -103 295 -193 310 -200 21 -9 174 -12 612 -12 517 0
585 -2 599 -16 23 -23 19 -61 -9 -89 l-24 -25 -512 0 c-362 0 -523 -3 -551
-12 -90 -27 -137 -128 -98 -215 11 -25 20 -49 20 -54 0 -5 -263 -9 -595 -9
-327 0 -595 4 -595 8 0 5 26 51 59 103 32 52 141 227 241 389 101 162 190 303
199 313 10 12 23 16 39 12 13 -3 150 -90 305 -193z"/>
<path d="M730 553 c-68 -27 -115 -101 -107 -169 6 -55 52 -123 102 -151 38
-22 50 -23 258 -23 183 0 225 3 254 17 41 19 81 76 90 126 8 49 -33 135 -82
173 l-38 29 -231 2 c-127 1 -238 -1 -246 -4z m500 -59 c81 -69 81 -184 -2
-228 -29 -15 -58 -17 -260 -14 -226 3 -227 3 -253 28 -55 51 -70 121 -40 180
29 55 48 59 297 60 l226 0 32 -26z"/>
<path d="M734 471 c-64 -39 -71 -135 -11 -171 29 -18 52 -20 245 -20 238 0
258 4 286 64 19 41 20 56 4 91 -23 50 -48 55 -280 55 -191 0 -216 -2 -244 -19z
m476 -24 c30 -15 36 -39 20 -77 -23 -54 -57 -61 -285 -58 -177 3 -207 5 -221
20 -15 15 -16 22 -5 57 19 66 36 70 266 70 141 1 207 -3 225 -12z"/>
<path d="M710 1208 c-40 -28 -670 -1039 -670 -1076 0 -90 117 -135 179 -68 13
13 139 210 280 438 163 261 266 417 281 425 19 9 31 9 55 -1 17 -8 162 -101
321 -207 l289 -194 605 -5 c484 -4 609 -8 625 -18 57 -39 82 -130 51 -190 -33
-63 -22 -62 -593 -62 -583 0 -570 1 -606 -72 -24 -49 -10 -101 33 -123 44 -23
1087 -22 1151 0 68 24 144 81 183 138 124 184 61 422 -137 513 l-62 29 -600 5
-600 5 -330 231 c-181 127 -340 236 -352 242 -33 18 -67 14 -103 -10z m167
-64 c77 -53 175 -121 248 -173 28 -19 70 -49 95 -66 25 -17 90 -62 145 -101
55 -39 111 -77 125 -85 20 -11 131 -14 600 -14 648 -1 644 0 739 -75 72 -57
102 -130 97 -237 -6 -126 -81 -237 -196 -292 l-55 -26 -525 -3 c-289 -1 -540
0 -558 3 -39 7 -54 36 -39 78 20 58 7 56 577 59 509 3 526 4 560 24 99 57 107
189 17 272 -54 50 -61 51 -680 51 l-578 0 -44 28 c-24 15 -150 99 -280 186
-273 183 -305 201 -337 192 -23 -7 -98 -73 -98 -87 0 -16 -472 -764 -496 -785
-36 -33 -88 -31 -110 3 -16 24 -16 28 4 67 12 23 54 94 94 158 40 64 91 145
112 180 201 328 404 648 423 667 36 36 81 29 160 -24z"/>
<path d="M1175 1222 c6 -5 79 -55 163 -111 l153 -101 686 0 c760 0 736 -2 767
65 24 50 20 82 -13 116 l-29 29 -835 0 c-459 0 -850 3 -868 6 -23 5 -31 3 -24
-4z m1736 -51 c21 -17 22 -21 11 -59 -22 -71 1 -69 -757 -68 l-670 1 -40 24
c-86 53 -155 102 -155 111 0 6 292 10 794 10 760 0 795 -1 817 -19z"/>
</g>
</svg>
